<svg xmlns="http://www.w3.org/2000/svg" version="1.1" xmlns:xlink="http://www.w3.org/1999/xlink" width="1000" height="1000"><g clip-path="url(#SvgjsClipPath1169)"><rect width="1000" height="1000" fill="#fef7ff"></rect><g transform="matrix(20.833333333333332,0,0,20.833333333333332,0,0)"><svg xmlns="http://www.w3.org/2000/svg" version="1.1" xmlns:xlink="http://www.w3.org/1999/xlink" width="48px" height="48px"><svg height="48px" viewBox="0 -960 960 960" width="48px" fill="#e3e3e3" version="1.1" id="svg1" sodipodi:docname="brightness_4_48dp_E3E3E3_FILL0_wght400_GRAD0_opsz48.svg" inkscape:version="1.3.2 (091e20e, 2023-11-25, custom)" xmlns:inkscape="http://www.inkscape.org/namespaces/inkscape" xmlns:sodipodi="http://sodipodi.sourceforge.net/DTD/sodipodi-0.dtd" xmlns="http://www.w3.org/2000/svg" xmlns:svg="http://www.w3.org/2000/svg">
  <defs id="defs1"><clipPath id="SvgjsClipPath1169"><rect width="1000" height="1000" x="0" y="0" rx="250" ry="250"></rect></clipPath></defs>
  <sodipodi:namedview id="namedview1" pagecolor="#ffffff" bordercolor="#000000" borderopacity="0.25" inkscape:showpageshadow="2" inkscape:pageopacity="0.0" inkscape:pagecheckerboard="0" inkscape:deskcolor="#d1d1d1" inkscape:zoom="8.03125" inkscape:cx="24.77821" inkscape:cy="17.743191" inkscape:window-width="1920" inkscape:window-height="1009" inkscape:window-x="1912" inkscape:window-y="-8" inkscape:window-maximized="1" inkscape:current-layer="svg1"></sodipodi:namedview>
  <path style="fill:#ffcca0;fill-opacity:1;stroke:none;stroke-width:3000;stroke-linecap:square;stroke-linejoin:round;stroke-opacity:1" d="M 370,-220 H 220 V -371 L 111,-480 220,-589 v -151 h 151 l 110,-109 108,109 h 151 v 151 l 109,109 -109,109 v 151 H 588.92 L 481,-113 Z" id="path2" sodipodi:nodetypes="ccccccccccccccccc"></path>
  <path d="m 490,-286 q 80.92,0 137.96,-57.05 Q 685,-400.11 685,-481.05 685,-562 627.96,-619 570.92,-676 490,-676 q -20,0 -39.98,4.5 -19.99,4.5 -39.02,13.5 52,24 83,71.75 31,47.75 31,105.25 0,57.5 -31,105.25 -31,47.75 -83,72.75 19,8 39,12.5 20,4.5 40,4.5 z M 481,-29 346,-160 H 160 V -346 L 26,-480 160,-614 v -186 h 186 l 135,-134 133,134 h 186 v 186 l 134,134 -134,134 v 186 H 614 Z m 0,-84 107.92,-107 H 740 V -371 L 849,-480 740,-589 V -740 H 589 L 481,-849 371,-740 H 220 v 151 l -109,109 109,109 v 151 h 150 z m 0,-368 z" id="path1" style="fill:#6750a4;fill-opacity:1"></path>
</svg></svg></g></g></svg>